<svg width="44" height="44" viewBox="0 0 44 44" fill="none" xmlns="http://www.w3.org/2000/svg">
<path d="M20.9367 27.0782L16.8117 22.9532L15.125 24.6399L20.0933 29.6082C20.3133 29.8282 20.625 29.9566 20.9367 29.9566C21.2483 29.9566 21.56 29.8282 21.78 29.6082L30.1767 21.2116L28.49 19.5249L20.9367 27.0782Z" fill="#00AEC7"/>
<path d="M36.1169 13.9334C36.1169 12.65 35.6036 11.4767 34.7786 10.615C34.7602 10.5967 34.7419 10.56 34.7236 10.5417C34.7052 10.5234 34.6686 10.505 34.6502 10.4867C33.7886 9.6617 32.6336 9.14837 31.3319 9.14837H30.9286V6.45337H28.5452V9.14837H15.4002V6.45337H13.0169V9.14837H12.6502C11.6602 9.14837 10.7436 9.4417 9.97357 9.97337C8.70857 10.835 7.86523 12.2834 7.86523 13.9334V16.7384V31.35C7.86523 33.99 10.0102 36.135 12.6502 36.135H31.3319C33.9719 36.135 36.1169 33.99 36.1169 31.35V16.7384V13.9334ZM31.3502 33.7517H12.6502C11.3302 33.7517 10.2486 32.67 10.2486 31.35V17.93H33.7336V31.35C33.7336 32.67 32.6519 33.7517 31.3319 33.7517H31.3502Z" fill="white"/>
</svg>
