<svg width="40" height="40" viewBox="0 0 40 40" fill="none" xmlns="http://www.w3.org/2000/svg">
<path d="M32.8337 12.6667C32.8337 11.5 32.3671 10.4334 31.6171 9.65003C31.6004 9.63337 31.5837 9.60003 31.5671 9.58337C31.5504 9.5667 31.5171 9.55003 31.5004 9.53337C30.7171 8.78337 29.6671 8.3167 28.4837 8.3167H28.1171V5.8667H25.9504V8.3167H14.0004V5.8667H11.8337V8.3167H11.5004C10.6004 8.3167 9.76706 8.58337 9.06706 9.0667C7.91706 9.85003 7.15039 11.1667 7.15039 12.6667V15.2167V28.5C7.15039 30.9 9.10039 32.85 11.5004 32.85H28.4837C30.8837 32.85 32.8337 30.9 32.8337 28.5V15.2167V12.6667ZM28.5004 30.6834H11.5004C10.3004 30.6834 9.31706 29.7 9.31706 28.5V16.3H30.6671V28.5C30.6671 29.7 29.6837 30.6834 28.4837 30.6834H28.5004Z" fill="#00AEC7"/>
<path d="M17.6329 21.25H12.9329C12.6496 21.25 12.3663 21.3667 12.1663 21.5667C11.9663 21.7667 11.8496 22.05 11.8496 22.3333V27.0333C11.8496 27.3167 11.9663 27.6 12.1663 27.8C12.3663 28 12.6496 28.1167 12.9329 28.1167H17.6329C17.9163 28.1167 18.1996 28 18.3996 27.8C18.5996 27.6 18.7163 27.3167 18.7163 27.0333V22.3333C18.7163 22.05 18.5996 21.7667 18.3996 21.5667C18.1996 21.3667 17.9163 21.25 17.6329 21.25ZM14.0163 23.4167H16.5496V25.95H14.0163V23.4167Z" fill="#001E60"/>
</svg>
