<svg width="44" height="44" viewBox="0 0 44 44" fill="none" xmlns="http://www.w3.org/2000/svg">
<path d="M9.09285 17.0316H34.9245C35.4745 17.0316 35.9512 16.6466 36.0795 16.1149C36.2079 15.5832 35.9512 15.0149 35.4562 14.7766L22.5312 8.3049C22.2012 8.1399 21.7978 8.1399 21.4678 8.3049L8.54285 14.7766C8.04785 15.0332 7.79118 15.5832 7.91952 16.1149C8.04785 16.6466 8.52452 17.0316 9.07452 17.0316H9.09285ZM22.0178 10.6882L29.9012 14.6482H14.1345L22.0178 10.6882Z" fill="#00AEC7"/>
<path d="M11.7521 18.7549V29.5715H9.82715V31.9549H34.1738V29.5715H32.2488V18.7549H29.8655V29.5715H26.2171V18.7549H23.8338V29.5715H20.1671V18.7549H17.7838V29.5715H14.1355V18.7549H11.7521Z" fill="#001E60"/>
<path d="M36.7586 33.4399H7.22363V35.8233H36.7586V33.4399Z" fill="#001E60"/>
</svg>
