<svg width="40" height="40" viewBox="0 0 40 40" fill="none" xmlns="http://www.w3.org/2000/svg">
<path d="M13.0302 15.2847H8.01595C7.74825 15.2847 7.48055 15.3979 7.28492 15.5833C7.08929 15.7789 6.98633 16.0363 6.98633 16.3143V20.6284V22.6362C8.08802 22.6362 8.98379 21.7713 9.03528 20.6799V19.4958V18.7545V17.3542H11.9903V31.0379H9.03528V23.7996C7.93358 23.7996 7.03781 24.6645 6.98633 25.7559V26.7443V27.6813V32.0675C6.98633 32.3352 7.09959 32.6029 7.28492 32.7985C7.48055 32.9942 7.73795 33.0971 8.01595 33.0971H13.0302C13.2979 33.0971 13.5656 32.9839 13.7612 32.7985C13.9569 32.6029 14.0598 32.3455 14.0598 32.0675V16.3246C14.0598 16.0569 13.9466 15.7892 13.7612 15.5936C13.5656 15.3979 13.3082 15.295 13.0302 15.295V15.2847Z" fill="white"/>
<path d="M10.4871 6.6667C9.47805 6.6667 8.49991 7.06825 7.78947 7.78898C7.05844 8.50972 6.65689 9.48786 6.66719 10.5175C6.66719 11.5265 7.06874 12.5046 7.78947 13.2151C8.51021 13.9461 9.48835 14.3477 10.518 14.3374C11.527 14.3477 12.5051 13.9358 13.2156 13.2151C13.9466 12.4944 14.3482 11.5162 14.3379 10.4866C14.3482 9.47756 13.9363 8.49942 13.2156 7.78898C12.4948 7.05795 11.5167 6.6564 10.4871 6.6667ZM11.7638 11.7633C11.3726 12.1443 11.0328 12.2781 10.5283 12.2884C9.98256 12.2781 9.64279 12.134 9.26183 11.7633C8.89117 11.3721 8.74702 11.0323 8.73672 10.5278C8.74702 9.98208 8.89117 9.6423 9.26183 9.26134C9.65309 8.89068 9.99286 8.74653 10.4974 8.73624C11.0431 8.74653 11.3828 8.89068 11.7741 9.26134C12.1448 9.6526 12.2889 9.99237 12.2992 10.4969C12.2889 11.0426 12.1448 11.3824 11.7741 11.7633H11.7638Z" fill="white"/>
<path d="M32.3249 18.3526C31.6659 17.2406 30.7187 16.3551 29.5552 15.727C28.3814 15.0887 27.0532 14.7798 25.6426 14.7798C24.2012 14.7798 22.8112 15.1093 21.5344 15.7682C21.2359 15.9227 20.9579 16.0874 20.6902 16.2624C19.5988 15.3873 18.147 14.996 16.4378 14.996C16.1701 14.996 15.9024 15.1093 15.7068 15.2946C15.5112 15.4902 15.4082 15.7476 15.4082 16.0256V32.0568C15.4082 32.3245 15.5215 32.5922 15.7068 32.7879C15.9024 32.9835 16.1598 33.0864 16.4378 33.0864H21.4521C21.7198 33.0864 21.9875 32.9732 22.1831 32.7879C22.3787 32.5922 22.4817 32.3348 22.4817 32.0568V21.9459C22.7185 21.8018 22.9553 21.668 23.2024 21.565C23.5319 21.4208 23.9232 21.3488 24.4071 21.3488C24.7572 21.3488 25.0146 21.4002 25.2205 21.4929C25.4264 21.5753 25.5809 21.6885 25.7353 21.8636C26.0648 22.2548 26.2295 22.6873 26.2295 23.3359V32.0671C26.2295 32.3348 26.3428 32.6025 26.5281 32.7981C26.7237 32.9938 26.9811 33.0967 27.2591 33.0967H32.3043C32.572 33.0967 32.8397 32.9835 33.0353 32.7981C33.2309 32.6025 33.3339 32.3451 33.3339 32.0671V30.8728V26.9911C32.2322 26.9911 31.3364 27.9589 31.2747 29.0503V30.8728V30.9757V31.0375H28.2888V23.3359C28.2888 22.296 27.9593 21.2973 27.3003 20.5251C26.9503 20.1132 26.5075 19.794 26.0133 19.5881C25.5191 19.3822 24.9734 19.2895 24.4071 19.2895C23.6967 19.2895 23.0171 19.4131 22.4096 19.6705C21.8536 19.9073 21.3285 20.2059 20.8446 20.5765C20.5872 20.7722 20.4328 21.0708 20.4328 21.4002V31.0375H17.4777V17.1273C18.4147 17.2509 19.0737 17.5392 19.5061 17.9304C19.5885 18.0025 19.6811 18.1158 19.815 18.2702C20.1753 18.7026 20.8034 18.7644 21.2462 18.4143C21.6374 18.0952 22.0493 17.8275 22.492 17.6009C23.4804 17.0964 24.5203 16.839 25.6529 16.839C26.7752 16.839 27.7328 17.0758 28.5874 17.5392C29.4522 18.0128 30.0906 18.6203 30.5745 19.4131C31.0481 20.2059 31.285 21.0708 31.285 22.0901V25.3746C32.3867 25.3746 33.2824 24.5097 33.3339 23.4183V22.8726V22.1004C33.3339 20.7516 33.0044 19.4749 32.3352 18.3629L32.3249 18.3526Z" fill="white"/>
</svg>
