<svg width="44" height="44" viewBox="0 0 44 44" fill="none" xmlns="http://www.w3.org/2000/svg">
<path d="M6.59875 20.877L13.4944 20.8627C13.5374 20.8627 13.5805 20.8627 13.6164 20.8627L20.39 20.8483C20.6124 20.8914 20.8492 20.834 21.0214 20.6618C21.165 20.5183 21.2367 20.3245 21.2295 20.138V13.1993C21.2295 13.1993 21.2295 13.1849 21.2295 13.1778V6.21755C21.2295 6.03099 21.1506 5.84442 21.0214 5.70809C20.8923 5.57175 20.7057 5.5 20.512 5.5C12.4252 5.5 5.87402 12.0512 5.87402 20.1308V20.1523C5.87402 20.3461 5.94578 20.5254 6.08211 20.6618C6.21845 20.7981 6.39783 20.8699 6.59157 20.8699L6.59875 20.877ZM8.09125 15.7107L11.8153 19.4348H7.35217C7.41675 18.136 7.67507 16.8875 8.09125 15.7107ZM10.6888 11.348L18.7612 19.4204H13.8388L8.69398 14.2828C9.22497 13.2136 9.89946 12.2234 10.6888 11.3408V11.348ZM14.6425 8.33431L19.8016 13.4935V18.4302L11.7077 10.3363C12.5903 9.53979 13.5733 8.87247 14.6496 8.33431H14.6425ZM19.8016 11.4628L16.0704 7.73157C17.2471 7.30822 18.4957 7.0499 19.8016 6.98532V11.47V11.4628Z" fill="#00AEC7"/>
<path d="M31.7342 11.3482C31.2893 11.0755 30.8588 10.8172 30.3852 10.5948C29.8112 10.3293 29.2156 10.1069 28.6057 9.91312C28.5913 9.91312 28.577 9.90594 28.5626 9.89876C28.3904 9.84854 28.2254 9.79113 28.0532 9.7409C27.3356 9.54717 26.6037 9.41801 25.8718 9.3319C25.7785 9.32473 25.6924 9.31038 25.5992 9.3032C25.1543 9.26015 24.7094 9.23145 24.2573 9.23145C24.0708 9.23145 23.8842 9.31038 23.7479 9.43953C23.6115 9.57587 23.5398 9.75525 23.5398 9.94899V23.6685L16.6155 35.5152C16.4146 35.8596 16.5294 36.2973 16.8738 36.4982C19.1125 37.8042 21.6598 38.5002 24.2573 38.5002C32.2939 38.5002 38.8881 31.8988 38.8881 23.8694C38.8881 22.4989 38.6944 21.1212 38.3069 19.8081C37.9266 18.5237 37.3741 17.2967 36.6637 16.163C35.9534 15.0292 35.1067 14.0175 34.1308 13.1206C33.6787 12.7116 33.2052 12.3241 32.7101 11.9725C32.4589 11.7931 32.2078 11.6209 31.9495 11.463C31.8777 11.42 31.8131 11.3769 31.7414 11.3339L31.7342 11.3482ZM33.5639 33.1975C31.1673 35.5941 27.8666 37.0795 24.2502 37.0795C22.1478 37.0795 20.0812 36.5772 18.2228 35.6157L24.8673 24.2425L28.2326 18.7031C28.5913 18.0358 28.3976 17.1532 27.7374 16.7585L26.9912 17.9855L24.9677 21.3149V10.7168C25.1328 10.7239 25.2906 10.7239 25.4556 10.7383C25.5418 10.7455 25.6279 10.7526 25.714 10.767C26.5463 10.8603 27.3571 11.0253 28.1393 11.2693C28.1465 11.2693 28.1608 11.2693 28.168 11.2765C28.8927 11.5061 29.5815 11.8003 30.2489 12.1447L28.7994 14.8642C28.4765 15.553 28.742 16.3782 29.4237 16.7442L30.0982 15.4813L31.4902 12.8766C32.2365 13.3717 32.9325 13.9386 33.5639 14.57C35.9605 16.9666 37.4459 20.2673 37.4459 23.8838C37.4459 27.5002 35.9605 30.8009 33.5639 33.1975Z" fill="#001E60"/>
<path d="M20.3827 23.8477C20.2607 23.6109 20.0167 23.4674 19.7513 23.4602L14.2405 23.4315H12.8771C12.8771 24.1921 13.5158 24.8236 14.2764 24.8666L18.3879 24.8882L11.6932 34.6325C8.63644 32.2789 6.76364 28.6912 6.5699 24.8379L9.79887 24.8523H11.234C11.234 24.0917 10.6384 23.4602 9.8778 23.4244L5.838 23.4028C5.64427 23.4028 5.46488 23.4746 5.32855 23.6109C5.19221 23.7473 5.12046 23.9266 5.11328 24.1204V24.1778C5.11328 28.9925 7.48836 33.5131 11.4564 36.2398C11.6143 36.3474 11.808 36.3904 11.9946 36.3546C12.1811 36.3187 12.3462 36.2111 12.4538 36.0532L20.3325 24.5868C20.4831 24.3643 20.4975 24.0845 20.3755 23.8477H20.3827Z" fill="#001E60"/>
</svg>
