<svg width="48" height="48" viewBox="0 0 48 48" fill="none" xmlns="http://www.w3.org/2000/svg">
<rect x="0.5" y="0.5" width="47" height="47" rx="11.5" fill="white"/>
<rect x="0.5" y="0.5" width="47" height="47" rx="11.5" stroke="#001E60"/>
<path d="M16.153 25.6681C14.3706 23.0003 14.6539 19.3646 17.0088 17.0097C19.6884 14.3301 24.0265 14.3301 26.706 17.0097C29.0078 19.3115 29.3266 22.8351 27.6681 25.4792C27.4025 25.916 27.0778 26.3291 26.7001 26.7069C26.3224 27.0846 25.9092 27.4151 25.4725 27.6748C23.3123 29.0323 20.5619 29.0618 18.3722 27.7692" stroke="#001E60" stroke-width="0.72" stroke-linecap="round" stroke-linejoin="round"/>
<path d="M27.6741 25.4792L32.5434 30.3485C33.1513 30.9564 33.1513 31.9362 32.5434 32.5441C31.9354 33.152 30.9557 33.152 30.3478 32.5441L25.4785 27.6748C25.9153 27.4092 26.3284 27.0846 26.7062 26.7069C27.0839 26.3292 27.4144 25.916 27.6741 25.4792Z" fill="#001E60" stroke="#001E60" stroke-width="0.72" stroke-linecap="round" stroke-linejoin="round"/>
</svg>
