<svg width="44" height="44" viewBox="0 0 44 44" fill="none" xmlns="http://www.w3.org/2000/svg">
<path d="M27.3206 39.0335L20.1381 39.027V34.243C20.1381 32.098 18.396 30.356 16.251 30.356C14.106 30.356 12.364 32.098 12.364 34.243V39.027H8.997L9.60151 32.0915V32.0265H9.595C9.62101 31.3375 9.1075 30.746 8.412 30.681L8.308 31.9095L7.6385 39.612C7.6255 39.794 7.684 39.9695 7.8075 40.106C7.931 40.2425 8.1 40.314 8.2885 40.314H28.5556C28.5556 39.6185 28.0096 39.053 27.3206 39.0205V39.0335ZM13.664 39.027V34.243C13.664 33.528 13.95 32.8845 14.4245 32.4165C14.8925 31.9485 15.536 31.6625 16.251 31.656C16.966 31.656 17.6095 31.942 18.0775 32.4165C18.5455 32.8845 18.838 33.528 18.838 34.243V39.027H13.664Z" fill="white"/>
<path d="M36.998 18.0253C36.8745 17.9018 36.712 17.8368 36.5365 17.8368H34.4565L33.8585 10.9988C33.8325 10.6608 33.5465 10.4073 33.2085 10.4073H27.599V9.29577C27.599 6.18876 25.077 3.66675 21.97 3.66675C18.8629 3.66675 16.3409 6.18876 16.3409 9.29577V10.4073H10.7704C10.4324 10.4073 10.1529 10.6673 10.1204 10.9988L9.5224 17.8368H7.48789C7.31889 17.8368 7.14989 17.9083 7.02639 18.0253C6.90289 18.1488 6.83789 18.3113 6.83789 18.4868V22.9068C6.83789 24.1678 7.6959 25.2143 8.8594 25.5263L8.6124 28.3734V28.4384C8.5864 29.1274 9.0999 29.7189 9.7954 29.7839L9.9059 28.5164L10.1594 25.5653C10.7509 25.4353 11.2579 25.1038 11.6349 24.6553C12.1354 25.2468 12.8699 25.6303 13.7084 25.6303C14.5469 25.6303 15.2814 25.2468 15.7819 24.6553C16.2824 25.2468 17.0169 25.6303 17.8554 25.6303C18.6939 25.6303 19.4284 25.2468 19.929 24.6553C20.4295 25.2468 21.164 25.6303 22.0025 25.6303C22.841 25.6303 23.5755 25.2468 24.076 24.6553C24.5765 25.2468 25.311 25.6303 26.1495 25.6303C26.988 25.6303 27.7225 25.2468 28.223 24.6553C28.7235 25.2468 29.458 25.6303 30.2965 25.6303C31.135 25.6303 31.8695 25.2468 32.37 24.6553C32.7405 25.0908 33.2345 25.4093 33.8065 25.5523L34.9765 39.0334H31.525H30.29C30.29 39.7289 30.836 40.2944 31.525 40.3269L31.59 40.3334H35.685C35.867 40.3334 36.0425 40.2554 36.166 40.1254C36.2895 39.9889 36.348 39.8134 36.335 39.6314L35.1065 25.5458C36.2895 25.2468 37.1605 24.1873 37.1605 22.9133V18.4933C37.1605 18.3243 37.089 18.1553 36.972 18.0318L36.998 18.0253ZM17.6539 9.28927C17.6539 8.09327 18.1349 7.01426 18.9214 6.22776C19.7079 5.44126 20.787 4.96025 21.983 4.96025C23.179 4.96025 24.258 5.44126 25.0445 6.22776C25.831 7.01426 26.312 8.09327 26.312 9.28927V10.4008H17.6539V9.28927ZM11.3749 11.7008H16.3539V14.7818H17.6539V11.7008H26.312V14.7818H27.612V11.7008H32.63L33.163 17.8303H10.8419L11.3749 11.7008ZM9.5744 24.3238C8.7879 24.3238 8.1509 23.6868 8.1509 22.9003V19.1303H10.9979V22.9003C10.9979 23.6868 10.3609 24.3238 9.5744 24.3238ZM13.7214 24.3238C12.9349 24.3238 12.2979 23.6868 12.2979 22.9003V19.1303H15.1449V22.9003C15.1449 23.6868 14.5079 24.3238 13.7214 24.3238ZM17.8684 24.3238C17.0819 24.3238 16.4449 23.6868 16.4449 22.9003V19.1303H19.2919V22.9003C19.2919 23.6868 18.6549 24.3238 17.8684 24.3238ZM22.0155 24.3238C21.229 24.3238 20.592 23.6868 20.592 22.9003V19.1303H23.439V22.9003C23.439 23.6868 22.802 24.3238 22.0155 24.3238ZM26.1625 24.3238C25.376 24.3238 24.739 23.6868 24.739 22.9003V19.1303H27.586V22.9003C27.586 23.6868 26.949 24.3238 26.1625 24.3238ZM30.3095 24.3238C29.523 24.3238 28.886 23.6868 28.886 22.9003V19.1303H31.733V22.9003C31.733 23.6868 31.096 24.3238 30.3095 24.3238ZM35.88 22.9003C35.88 23.6868 35.243 24.3238 34.4565 24.3238C33.67 24.3238 33.033 23.6868 33.033 22.9003V19.1303H35.88V22.9003Z" fill="white"/>
<path d="M21.9756 35.335V36.635H32.3886V35.335H31.3421V29.1665H32.3886V27.8665H21.9756V29.1665H23.0611V35.335H21.9756ZM24.3611 29.1665H30.0356V35.335H24.3611V29.1665Z" fill="white"/>
<path d="M17.0035 35.2959C16.8345 35.2959 16.6655 35.3674 16.542 35.4844C16.4185 35.6079 16.3535 35.7704 16.3535 35.9459C16.3535 36.1214 16.425 36.2839 16.542 36.4074C16.6655 36.5309 16.828 36.5959 17.0035 36.5959C17.179 36.5959 17.3415 36.5244 17.465 36.4074C17.5885 36.2839 17.6535 36.1214 17.6535 35.9459C17.6535 35.7704 17.582 35.6079 17.465 35.4844C17.3415 35.3609 17.179 35.2959 17.0035 35.2959Z" fill="white"/>
</svg>
