<svg width="44" height="44" viewBox="0 0 44 44" fill="none" xmlns="http://www.w3.org/2000/svg">
<path d="M32.1184 26.5166L28.0136 25.3086C27.7071 24.7556 27.3285 24.2508 26.8898 23.8061C26.7395 23.6558 26.5772 23.5176 26.415 23.3794V20.5667C26.7876 20.0138 27.052 19.3888 27.1903 18.7156C27.7852 18.0305 28.2119 17.1891 28.3922 16.2576C28.825 16.0232 29.1735 15.6987 29.456 15.3621C29.8046 14.9354 30.045 14.4846 30.1892 14.112C30.3515 13.6973 30.4416 13.2526 30.4416 12.7959C30.4416 12.4292 30.3815 12.0566 30.2433 11.702C30.1472 11.4616 30.069 11.2994 30.057 11.2152C30.051 11.1792 30.045 11.1311 30.045 11.077C30.045 10.9628 30.069 10.8066 30.0871 10.6082C30.1111 10.3979 30.1231 10.1755 30.1231 9.95916C30.1231 9.38821 30.033 8.79924 29.7926 8.24632C29.5822 7.75351 29.2577 7.36286 28.8971 7.03833C28.7889 6.93616 28.7048 6.83399 28.6206 6.70177C28.5365 6.56955 28.4523 6.41329 28.3442 6.22097C27.8754 5.36756 27.0761 4.75455 26.1746 4.46607C25.7419 4.32784 25.2971 4.26173 24.8524 4.26173C24.3896 4.26173 23.9269 4.33385 23.4881 4.46607C22.5326 3.9372 21.4508 3.66675 20.363 3.66675C19.5276 3.66675 18.6922 3.82301 17.9169 4.14754C16.769 4.62834 15.7834 5.46372 15.0682 6.49142C14.359 7.51912 13.9203 8.74515 13.9203 10.0132C13.9203 10.2116 13.9323 10.4099 13.9564 10.6142C13.9804 10.8066 13.9984 10.9688 13.9984 11.083C13.9984 11.1371 13.9984 11.1852 13.9864 11.2212C13.9744 11.3054 13.8963 11.4677 13.8001 11.7081C13.6619 12.0626 13.6018 12.4353 13.6018 12.8019C13.6018 13.2586 13.6919 13.7034 13.8542 14.118C13.9984 14.4846 14.2448 14.9534 14.5934 15.3982C14.8699 15.7407 15.2124 16.0713 15.6512 16.2876C15.8315 17.2072 16.2582 18.0425 16.8471 18.7217C16.9854 19.3707 17.2378 19.9717 17.5864 20.5126V23.2471C16.8411 23.8241 16.2221 24.5453 15.7714 25.3807L11.8769 26.5286C8.96811 27.388 6.9668 30.0564 6.9668 33.0914V40.3334H8.16879V33.0914C8.16879 30.5913 9.81551 28.3856 12.2195 27.6765L15.1944 26.799C15.0442 27.3519 14.96 27.9289 14.96 28.5239V35.8861C14.0766 36.1445 13.4275 36.9558 13.4215 37.9234C13.4215 39.1014 14.3771 40.057 15.555 40.057C16.733 40.057 17.6885 39.1014 17.6885 37.9234C17.6885 36.9558 17.0395 36.1505 16.156 35.8861V28.5239C16.156 28.2414 16.18 27.971 16.2221 27.7005L21.4087 35.6997V40.3274H22.6107V35.6997L27.6049 27.995C27.623 28.1693 27.635 28.3436 27.635 28.5239V31.625L25.1168 38.9151C25.0627 39.0653 25.0748 39.2336 25.1469 39.3778C25.219 39.5221 25.3392 39.6302 25.4955 39.6843L27.2263 40.2733L27.611 39.1374L26.451 38.7468L28.236 33.5782L30.0209 38.7468L28.861 39.1374L29.2457 40.2733L30.9765 39.6843C31.1268 39.6302 31.253 39.5221 31.3251 39.3778C31.3972 39.2336 31.4032 39.0713 31.3552 38.9151L28.837 31.631V28.5239C28.837 27.9049 28.7468 27.3099 28.5906 26.7389L31.7698 27.6765C34.1678 28.3856 35.8205 30.5853 35.8205 33.0914V40.3334H37.0225V33.0914C37.0225 30.0564 35.0212 27.382 32.1124 26.5286L32.1184 26.5166ZM22.0998 30.441L23.398 32.2861L22.0157 34.4136L20.7115 32.4003L22.0938 30.441H22.0998ZM22.8631 29.4374L24.9546 27.1536L25.7238 26.3122C25.249 25.8795 24.5218 25.9035 24.0711 26.3483L22.0698 28.5359L20.0084 26.4805C19.5336 26.0598 18.8064 26.0718 18.3556 26.5286L19.2091 27.376L21.3246 29.4855L20.0264 31.3245L16.7931 26.3363L17.2678 26.198C18.1814 25.9276 18.8064 25.0922 18.8064 24.1366V21.8168C19.6959 22.5079 20.8137 22.9226 22.0337 22.9226C23.2297 22.9226 24.3355 22.5199 25.219 21.8468V24.1366C25.219 25.0862 25.844 25.9276 26.7575 26.198L27.1722 26.3182C27.1842 26.3483 27.2023 26.3843 27.2143 26.4204L24.1132 31.2043L22.8691 29.4434L22.8631 29.4374ZM14.9781 13.6733C14.8699 13.3908 14.8038 13.0843 14.8038 12.7959C14.8038 12.5615 14.8398 12.3391 14.918 12.1348C14.966 11.9905 15.0922 11.7802 15.1584 11.4616C15.1884 11.3294 15.1944 11.1972 15.1944 11.083C15.1944 10.8426 15.1584 10.6443 15.1403 10.482C15.1223 10.3258 15.1163 10.1695 15.1163 10.0193C15.1163 9.03363 15.4649 8.02997 16.0538 7.18256C16.6428 6.33516 17.4662 5.64402 18.3737 5.26539C18.9987 5.00697 19.6778 4.87475 20.357 4.87475C21.2584 4.87475 22.1599 5.10312 22.9352 5.54185C22.9893 5.56589 23.1095 5.65604 23.3439 5.6921H23.4401C23.6324 5.6921 23.7406 5.64402 23.7946 5.632C24.1372 5.52382 24.4918 5.46973 24.8464 5.46973C25.1709 5.46973 25.4955 5.51781 25.796 5.61397C26.421 5.81831 26.9799 6.25703 27.2804 6.80995C27.3766 6.99025 27.4727 7.17054 27.5989 7.36286C27.7191 7.55518 27.8754 7.75351 28.0797 7.93982C28.3562 8.19223 28.5485 8.43263 28.6807 8.73313C28.843 9.10575 28.9151 9.52644 28.9151 9.97118C28.9151 10.1395 28.9031 10.3137 28.8851 10.488C28.867 10.6503 28.837 10.8486 28.831 11.089C28.831 11.2092 28.837 11.3354 28.867 11.4677C28.9392 11.7862 29.0594 11.9965 29.1074 12.1408C29.1856 12.3451 29.2216 12.5735 29.2216 12.8019C29.2216 13.0903 29.1615 13.3968 29.0473 13.6793C28.9452 13.9317 28.7528 14.2983 28.5004 14.6109C28.4884 14.6229 28.4764 14.6349 28.4644 14.6469V12.3391C28.4644 11.6239 28.3442 10.9328 28.1278 10.2957C28.0437 10.0433 27.8033 9.87502 27.5328 9.88704C27.3345 9.89305 27.1422 9.89906 26.9439 9.89906C26.0063 9.89906 25.0808 9.80891 24.1793 9.62861C22.3703 9.26802 20.393 8.42061 18.9266 7.16454C18.7162 6.98424 18.4037 6.97222 18.1814 7.13449C16.5827 8.30642 15.537 10.1996 15.537 12.3391V14.671C15.537 14.671 15.525 14.6589 15.5189 14.6469C15.2605 14.3284 15.0562 13.9317 14.954 13.6733H14.9781ZM16.763 12.3331C16.763 10.7525 17.4662 9.34614 18.572 8.38455C20.1767 9.6226 22.1299 10.4279 23.9689 10.8006C24.9485 10.9989 25.9582 11.095 26.9679 11.095C27.022 11.095 27.0761 11.095 27.1302 11.095C27.2263 11.4977 27.2804 11.9124 27.2804 12.3391V15.2659C27.2804 16.3357 26.8657 17.3033 26.1926 18.0365C26.1145 18.1207 26.0604 18.2288 26.0424 18.343C25.7058 20.2602 24.035 21.7206 22.0217 21.7206C20.0084 21.7206 18.3376 20.2602 18.0011 18.343C17.983 18.2288 17.9289 18.1207 17.8508 18.0365C17.1777 17.3033 16.763 16.3357 16.763 15.2659V12.3391V12.3331ZM16.4986 37.9174C16.4986 38.4343 16.0839 38.849 15.567 38.849C15.0502 38.849 14.6355 38.4343 14.6355 37.9174C14.6355 37.4006 15.0502 36.9859 15.567 36.9859C16.0839 36.9859 16.4986 37.4006 16.4986 37.9174Z" fill="white"/>
<path d="M19.5942 14.4786C19.7504 14.4786 19.9067 14.4125 20.0209 14.3043C20.1351 14.1961 20.1952 14.0399 20.1952 13.8776C20.1952 13.7153 20.129 13.5651 20.0209 13.4509C19.9127 13.3367 19.7564 13.2766 19.5942 13.2766C19.4319 13.2766 19.2816 13.3427 19.1675 13.4509C19.0533 13.5591 18.9932 13.7153 18.9932 13.8776C18.9932 14.0399 19.0593 14.1901 19.1675 14.3043C19.2756 14.4185 19.4319 14.4786 19.5942 14.4786Z" fill="white"/>
<path d="M24.4975 14.4786C24.6537 14.4786 24.81 14.4125 24.9242 14.3043C25.0384 14.1961 25.0985 14.0399 25.0985 13.8776C25.0985 13.7153 25.0324 13.5651 24.9242 13.4509C24.816 13.3367 24.6597 13.2766 24.4975 13.2766C24.3352 13.2766 24.185 13.3427 24.0708 13.4509C23.9566 13.5591 23.8965 13.7153 23.8965 13.8776C23.8965 14.0399 23.9626 14.1901 24.0708 14.3043C24.1789 14.4185 24.3352 14.4786 24.4975 14.4786Z" fill="white"/>
</svg>
