<svg width="38" height="36" viewBox="0 0 38 36" fill="none" xmlns="http://www.w3.org/2000/svg">
<path d="M35.7823 19.6898L28.3512 15.1299V10.3853C28.3512 10.1687 28.2404 9.96493 28.0514 9.85029C27.8623 9.73566 27.6277 9.71655 27.4256 9.80571C27.1323 9.93945 26.8715 10.0859 26.6173 10.2388C26.0958 5.88901 22.3673 2.50728 17.7978 2.41175C16.0379 1.30998 13.9715 0.698591 11.8856 0.666748C11.7096 0.666748 11.5336 0.736803 11.4098 0.857807C11.2859 0.985179 11.2207 1.15713 11.2272 1.32908C11.2924 2.75565 11.5597 4.17585 12.2637 5.50053C12.4071 5.76801 12.57 6.03549 12.746 6.28387C11.9378 6.88888 11.2729 7.65312 10.7905 8.52562H8.18964C7.24447 8.52562 6.47529 9.27712 6.47529 10.2006V12.678C6.47529 13.7415 7.08803 14.7159 8.06579 15.1999L10.4841 16.3909L12.192 19.2122C12.192 19.2122 12.1529 19.2249 12.1333 19.2249C11.8986 18.9893 11.6249 18.8046 11.3381 18.6708C10.9013 18.4734 10.432 18.3842 9.96266 18.3842C9.81274 18.3842 9.66933 18.3906 9.51941 18.4097C8.25483 18.5753 7.12062 19.3395 6.52092 20.4413C6.21455 21.0017 6.07115 21.6259 6.07115 22.25C6.07115 22.7022 6.14937 23.1543 6.30581 23.581C6.07766 23.8039 5.87559 24.0459 5.68656 24.2943C4.0765 24.7529 2.50555 25.2878 0.999788 26.1157C0.765123 26.2431 0.634754 26.4979 0.673865 26.759C0.712976 27.0201 0.90853 27.2302 1.16927 27.2876C1.93845 27.4595 2.8054 27.6952 3.66584 27.9372C3.22258 28.5995 2.94881 29.3701 2.94881 30.1853C2.94881 30.4209 2.97488 30.6629 3.02051 30.8986C3.17695 31.631 3.60717 32.3188 4.24598 32.8283C4.70227 33.1913 5.28241 33.4587 5.92774 33.5798C5.80389 34.0765 5.67352 34.5733 5.53011 35.0764L6.78818 35.4203C7.21839 33.9046 7.65513 32.3251 7.65513 30.7139C7.65513 29.7522 7.49869 28.7778 7.08151 27.8289C7.0098 27.6569 6.85988 27.5359 6.67736 27.4786C5.62137 27.1729 4.3959 26.8099 3.20303 26.4915C4.18079 26.0903 5.19115 25.7591 6.25366 25.4598C6.40359 25.4152 6.53396 25.3197 6.6187 25.1987C7.33573 24.1733 8.4569 23.4091 9.67585 23.1543C9.98222 23.0906 10.2951 23.0588 10.608 23.0588C11.5532 23.0588 12.4918 23.3518 13.2219 23.8995C13.952 24.4472 14.4995 25.256 14.858 26.1476C15.0014 26.5042 15.1188 26.88 15.21 27.2621C15.4382 28.1728 15.5164 29.1345 15.5164 30.1025V35.2802H16.8201V28.6122V28.5804V28.4658C16.8201 27.8671 16.8787 25.5426 17.7131 22.9951L18.2998 21.3074L17.9087 21.1801C17.4393 21.0272 16.9374 21.2692 16.781 21.7278L16.7027 21.9507C16.5593 20.8998 15.8684 19.9955 14.9362 19.5115C14.5321 19.3013 14.0888 19.1739 13.6456 19.123L11.501 15.5884C11.4358 15.4865 11.3446 15.3974 11.2338 15.3464L8.64594 14.0727C8.11142 13.8116 7.77246 13.2766 7.77246 12.6907V10.2133C7.77246 9.9904 7.95498 9.81208 8.18313 9.81208H11.1686C11.4358 9.81208 11.6575 9.65286 11.7748 9.41722C12.1724 8.58294 12.7982 7.85055 13.5543 7.29011C14.0954 7.84418 14.7211 8.32182 15.4251 8.6721L16.0183 7.53848C14.9102 6.99078 14.0041 6.03549 13.4174 4.92098C12.9351 4.01664 12.6939 3.0295 12.5831 1.97868C14.2388 2.12516 15.8619 2.67286 17.2373 3.57084C17.3416 3.64089 17.4719 3.6791 17.6023 3.6791C19.7534 3.6791 21.6959 4.5325 23.1039 5.90812C24.4923 7.271 25.3593 9.13701 25.3788 11.2068C24.7921 11.78 24.3619 12.3914 24.0686 12.9454C23.7101 13.6141 23.5211 14.2001 23.4298 14.5567C21.3113 15.4674 19.7403 16.8494 18.6061 18.3906L17.9021 19.4032C18.4953 19.7981 19.3101 19.6516 19.7143 19.0657C20.7833 17.6327 22.2304 16.3845 24.2446 15.5884C24.4597 15.5056 24.6096 15.3146 24.6422 15.0917C24.6487 15.0471 24.7791 14.3147 25.268 13.4486C25.633 12.7926 26.1936 12.0729 27.0541 11.4807V15.4738C27.0541 15.6903 27.1714 15.8941 27.3604 16.0151L35.0978 20.7597C35.691 21.1227 36.0234 21.7532 36.0234 22.3965C36.0234 22.7085 35.9452 23.027 35.7823 23.3263L35.7562 23.3645C35.3977 24.0014 34.7198 24.3644 34.0223 24.3644C33.729 24.3644 33.4356 24.3007 33.1553 24.1669C32.9467 24.065 32.699 24.0841 32.5035 24.2115C32.5035 24.2115 32.0342 24.5108 31.3953 24.7783C30.7565 25.0458 29.9157 25.3006 29.0943 25.2942C28.801 25.2942 28.5142 25.2623 28.2404 25.1987C28.0449 25.1541 27.8363 25.1987 27.6798 25.3133C27.5234 25.4343 27.4321 25.619 27.4321 25.8164V35.2738H28.7358V26.5488C28.8597 26.5552 28.977 26.5679 29.1008 26.5679C30.2155 26.5679 31.2389 26.2367 31.9885 25.9183C32.3927 25.7464 32.7186 25.5744 32.9337 25.4534C33.2922 25.5808 33.6638 25.6381 34.0288 25.6381C35.1891 25.6381 36.3103 25.0331 36.9034 23.9759L36.9295 23.9377C37.2033 23.4537 37.3337 22.9187 37.3337 22.3965C37.3337 21.3265 36.7861 20.2885 35.7953 19.6834L35.7823 19.6898ZM5.0673 31.8475C4.65664 31.5227 4.38938 31.0833 4.29813 30.6566C4.26553 30.5101 4.2525 30.3572 4.2525 30.198C4.2525 29.5548 4.53931 28.867 4.9956 28.332C5.33456 28.4339 5.66048 28.5231 5.98641 28.6186C6.24063 29.3 6.35144 29.9942 6.35144 30.7202C6.35144 31.2488 6.28626 31.7902 6.18848 32.3442C5.73871 32.2614 5.36715 32.0831 5.0673 31.8475ZM16.0379 24.1797C15.9596 24.5236 15.8879 24.8547 15.8293 25.1795C15.738 24.9949 15.6402 24.8165 15.5359 24.6446C15.725 24.5108 15.8879 24.358 16.0313 24.186L16.0379 24.1797ZM15.4316 22.2946V22.3328C15.4316 22.6448 15.3274 22.976 15.1383 23.2435C15.0405 23.39 14.9167 23.511 14.7798 23.6129C14.5451 23.3581 14.2909 23.1097 14.0106 22.8996C13.0329 22.1672 11.8139 21.7978 10.6015 21.7978C10.1973 21.7978 9.79318 21.836 9.39556 21.9188C8.68505 22.0717 8.02016 22.3519 7.41395 22.7276C7.38787 22.5748 7.3618 22.4219 7.3618 22.2691C7.3618 21.8424 7.4661 21.4157 7.66165 21.0527C8.04624 20.3267 8.84801 19.7853 9.67585 19.6898C9.76711 19.6771 9.85837 19.6707 9.94963 19.6707C10.243 19.6707 10.5363 19.728 10.7775 19.8426C11.0187 19.9509 11.2077 20.1038 11.3315 20.2948C11.4945 20.5496 11.8204 20.6578 12.1072 20.5559C12.4397 20.4349 12.7982 20.3776 13.1437 20.3776C13.5609 20.3776 13.965 20.4668 14.3105 20.6451C14.9428 20.9699 15.4121 21.6513 15.4186 22.3073L15.4316 22.2946Z" fill="white"/>
</svg>
