<svg width="81" height="80" viewBox="0 0 81 80" fill="none" xmlns="http://www.w3.org/2000/svg">
<path d="M34.6224 48.3219V46.0885C33.3999 46.0885 32.4125 47.0171 32.295 48.2043C32.295 48.2396 32.2715 48.2748 32.2715 48.3219V52.9766C32.2715 53.3997 32.4948 53.7994 32.871 53.9992C33.2471 54.2108 33.6938 54.199 34.0581 53.9757L44.637 47.4755L45.9535 46.6645L55.2159 40.9754C55.5686 40.7638 55.7802 40.3877 55.7802 39.9763C55.7802 39.5649 55.5686 39.1887 55.2159 38.9772L34.0581 25.9769C33.6938 25.7535 33.2471 25.7418 32.871 25.9534C32.4948 26.1649 32.2715 26.5528 32.2715 26.976V42.668C33.4939 42.668 34.4813 41.7394 34.5988 40.5522C34.5988 40.517 34.6224 40.4817 34.6224 40.4347V29.08L52.3596 39.9763L44.7311 44.6663L43.4146 45.4773L34.6224 50.8725V48.3219Z" fill="white"/>
<path d="M63.5735 25.5655C63.503 25.4598 63.4207 25.3775 63.3267 25.2952C63.3149 25.2834 63.3032 25.2717 63.2914 25.2482C63.2679 25.2364 63.2561 25.2129 63.2326 25.2012C62.4568 24.4841 61.2697 24.3548 60.3411 24.9661L61.6458 26.929C63.8909 30.6434 65.1838 34.9925 65.1838 39.659C65.1838 46.4765 62.4216 52.6475 57.9549 57.1142C53.4883 61.5808 47.3173 64.3431 40.4997 64.3431C33.6822 64.3431 27.5112 61.5808 23.0446 57.1142C18.5779 52.6475 15.8156 46.4765 15.8156 39.659C15.8156 32.8415 18.5779 26.6705 23.0446 22.2038C27.5112 17.7372 33.6822 14.9749 40.4997 14.9749C46.5532 14.9749 52.0895 17.1494 56.3916 20.7698C56.3916 20.7698 56.4151 20.7698 56.4269 20.7933C57.3907 21.5221 58.7542 21.4163 59.5888 20.5112L57.9549 19.0184C57.9549 19.0184 57.9314 18.9831 57.9197 18.9714C53.2179 15.0102 47.1409 12.624 40.5233 12.624C25.5952 12.624 13.4883 24.731 13.4883 39.659C13.4883 54.587 25.5952 66.694 40.5233 66.694C55.4513 66.694 67.5582 54.587 67.5582 39.659C67.5582 34.4988 66.1124 29.6678 63.597 25.5655H63.5735Z" fill="white"/>
</svg>
