<svg width="40" height="40" viewBox="0 0 40 40" fill="none" xmlns="http://www.w3.org/2000/svg">
<path d="M34.5743 27.7109L24.1277 17.2643L31.945 9.43683C32.6603 8.64099 32.6401 7.42205 31.8745 6.6665L30.5246 8.01641L21.992 16.549C21.5991 16.9419 21.5991 17.5766 21.992 17.9694L31.4312 27.4087H26.7972L25.2862 25.8976L24.6414 25.2529L19.6851 20.2965C19.4937 20.1051 19.2418 20.0044 18.9698 20.0044C18.6978 20.0044 18.446 20.1152 18.2546 20.2965L9.65145 28.9097C8.9362 29.7055 8.95635 30.9245 9.72196 31.68L11.0719 30.3301L11.1122 30.2898L11.1424 30.2596L18.9698 22.4322L23.221 26.6834L23.8657 27.3281L25.679 29.1414C25.8704 29.3328 26.1223 29.4336 26.3943 29.4336H33.8792C34.2822 29.4336 34.6549 29.1918 34.806 28.809C34.9571 28.4262 34.8765 28.0031 34.5844 27.7109H34.5743Z" fill="white"/>
<path d="M14.7489 18.2111C15.5347 18.9263 16.7637 18.9062 17.5193 18.1405L16.1694 16.7906L8.55347 9.17476H13.1975L18.9195 14.8967C19.7053 15.612 20.9343 15.5918 21.6899 14.8262L20.34 13.4763L14.3258 7.46219C14.1344 7.27079 13.8826 7.17005 13.6207 7.17005L6.11559 7.1499C5.71263 7.1499 5.3399 7.39168 5.17871 7.77448C5.01753 8.15729 5.10819 8.59047 5.40034 8.87254L14.7489 18.2111Z" fill="white"/>
</svg>
