<svg width="40" height="40" viewBox="0 0 40 40" fill="none" xmlns="http://www.w3.org/2000/svg">
<path d="M24.6367 18.4091L18.2123 13.5617C17.8948 13.3183 17.4609 13.276 17.101 13.4559C16.7412 13.6358 16.5189 13.9957 16.5189 14.3979V24.1137C16.5083 24.5159 16.7306 24.8864 17.0904 25.0663C17.4503 25.2462 17.8842 25.2039 18.2017 24.9604L24.6367 20.1025C24.9013 19.9014 25.06 19.5945 25.06 19.2558C25.06 18.9171 24.9013 18.6102 24.6367 18.4091ZM18.6251 21.9864V16.5252L22.2447 19.2558L18.6251 21.9864Z" fill="white"/>
<path d="M20.5189 28.0193L19.3229 28.0087H9.68113C7.79722 28.0087 6.27316 26.4846 6.27316 24.6007V13.8582C6.27316 11.9743 7.79722 10.4502 9.68113 10.4502H15.1212C15.1212 9.31779 14.2321 8.397 13.1103 8.34408L12.9303 8.3335H9.69172C6.64359 8.3335 4.16699 10.8101 4.16699 13.8582V24.6007C4.16699 27.6489 6.64359 30.1255 9.69172 30.1255H22.5404C22.5404 28.993 21.6514 28.0722 20.5295 28.0193H20.5189Z" fill="white"/>
<path d="M30.3194 8.34375H17.4707C17.4707 9.47621 18.3597 10.397 19.4816 10.4499L23.2494 10.4605H30.3194C32.2033 10.4605 33.7274 11.9846 33.7274 13.8685V24.611C33.7274 26.4949 32.2033 28.019 30.3194 28.019H24.8793C24.8793 29.1514 25.7684 30.0722 26.8903 30.1251L27.0702 30.1357H30.3088C33.3569 30.1357 35.8335 27.6591 35.8335 24.611V13.8685C35.8335 10.8204 33.3569 8.34375 30.3088 8.34375H30.3194Z" fill="white"/>
</svg>
